<svg id="Layer_1" data-name="Layer 1" xmlns="http://www.w3.org/2000/svg" viewBox="0 0 515.84 278.08"><defs><style>.cls-1{fill:#0fb252;}</style></defs><polygon class="cls-1" points="238.77 81.17 178.26 278.08 74.36 278.08 0 81.17 87.72 81.17 127.64 208.82 167.03 81.17 238.77 81.17"/><polygon class="cls-1" points="238.77 81.17 178.26 278.08 74.36 278.08 0 81.17 87.72 81.17 127.64 208.82 167.03 81.17 238.77 81.17"/><polygon class="cls-1" points="367.07 231.27 367.07 278.08 182.22 278.08 242.69 81.17 259.73 81.17 259.73 231.27 367.07 231.27"/><polygon class="cls-1" points="502.4 114.89 502.4 278.08 434.74 278.08 434.74 206.04 367.07 206.04 367.07 215.25 299.41 215.25 299.41 114.89 367.07 114.89 367.07 135.86 434.74 135.86 434.74 114.89 502.4 114.89"/><polygon class="cls-1" points="515.84 67.93 515.84 114.89 503.2 107.51 446.95 74.59 400.11 47.19 353.26 74.59 300.21 105.64 285.98 113.94 285.98 67.97 400.94 0 515.84 67.93"/></svg>